<svg width="205" height="39" viewBox="0 0 205 39" fill="none" xmlns="http://www.w3.org/2000/svg">
<path d="M23.7812 34.0859L0.226562 23.8438V18.1719L23.7812 7.97656V14.6562L7.35156 20.9375L23.7812 27.4531V34.0859ZM25.9609 38.5859L34.4688 3.05469H39.4141L30.8125 38.5859H25.9609ZM181.211 34.1094V27.4766L197.664 21.0078L181.211 14.6094V8.02344L204.789 18.2188V23.8438L181.211 34.1094Z" fill="#FE6565"/>
<path d="M53.7906 31.808L60.5106 11.408H67.6626L57.8226 38H49.6626L39.8706 11.408H47.0706L53.7906 31.808ZM74.845 8.24C73.661 8.24 72.669 7.872 71.869 7.136C71.101 6.368 70.717 5.424 70.717 4.304C70.717 3.184 71.101 2.256 71.869 1.52C72.669 0.751998 73.661 0.367998 74.845 0.367998C76.029 0.367998 77.005 0.751998 77.773 1.52C78.573 2.256 78.973 3.184 78.973 4.304C78.973 5.424 78.573 6.368 77.773 7.136C77.005 7.872 76.029 8.24 74.845 8.24ZM78.157 11.408V38H71.437V11.408H78.157ZM83.0684 24.704C83.0684 21.952 83.6284 19.552 84.7484 17.504C85.8684 15.424 87.4204 13.824 89.4044 12.704C91.3884 11.552 93.6604 10.976 96.2204 10.976C99.5164 10.976 102.236 11.808 104.38 13.472C106.556 15.104 108.012 17.408 108.748 20.384H101.5C101.116 19.232 100.46 18.336 99.5324 17.696C98.6364 17.024 97.5164 16.688 96.1724 16.688C94.2524 16.688 92.7324 17.392 91.6124 18.8C90.4924 20.176 89.9324 22.144 89.9324 24.704C89.9324 27.232 90.4924 29.2 91.6124 30.608C92.7324 31.984 94.2524 32.672 96.1724 32.672C98.8924 32.672 100.668 31.456 101.5 29.024H108.748C108.012 31.904 106.556 34.192 104.38 35.888C102.204 37.584 99.4844 38.432 96.2204 38.432C93.6604 38.432 91.3884 37.872 89.4044 36.752C87.4204 35.6 85.8684 34 84.7484 31.952C83.6284 29.872 83.0684 27.456 83.0684 24.704ZM121.495 16.928V29.792C121.495 30.688 121.703 31.344 122.119 31.76C122.567 32.144 123.303 32.336 124.327 32.336H127.447V38H123.223C117.559 38 114.727 35.248 114.727 29.744V16.928H111.559V11.408H114.727V4.832H121.495V11.408H127.447V16.928H121.495ZM144.089 38.432C141.529 38.432 139.225 37.872 137.177 36.752C135.129 35.6 133.513 33.984 132.329 31.904C131.177 29.824 130.601 27.424 130.601 24.704C130.601 21.984 131.193 19.584 132.377 17.504C133.593 15.424 135.241 13.824 137.321 12.704C139.401 11.552 141.721 10.976 144.281 10.976C146.841 10.976 149.161 11.552 151.241 12.704C153.321 13.824 154.953 15.424 156.137 17.504C157.353 19.584 157.961 21.984 157.961 24.704C157.961 27.424 157.337 29.824 156.089 31.904C154.873 33.984 153.209 35.6 151.097 36.752C149.017 37.872 146.681 38.432 144.089 38.432ZM144.089 32.576C145.305 32.576 146.441 32.288 147.497 31.712C148.585 31.104 149.449 30.208 150.089 29.024C150.729 27.84 151.049 26.4 151.049 24.704C151.049 22.176 150.377 20.24 149.033 18.896C147.721 17.52 146.105 16.832 144.185 16.832C142.265 16.832 140.649 17.52 139.337 18.896C138.057 20.24 137.417 22.176 137.417 24.704C137.417 27.232 138.041 29.184 139.289 30.56C140.569 31.904 142.169 32.576 144.089 32.576ZM169.61 15.536C170.474 14.128 171.594 13.024 172.97 12.224C174.378 11.424 175.978 11.024 177.77 11.024V18.08H175.994C173.882 18.08 172.282 18.576 171.194 19.568C170.138 20.56 169.61 22.288 169.61 24.752V38H162.89V11.408H169.61V15.536Z" fill="#141414"/>
</svg>
